<svg id="a" xmlns="http://www.w3.org/2000/svg" xmlns:xlink="http://www.w3.org/1999/xlink" viewBox="0 0 42.77 33.92" width="86" height="68"><defs><clipPath id="b"><rect x="-497.08" width="539.83" height="33.82" fill="none"/></clipPath></defs><g clip-path="url(#b)" fill="none"><g id="c"><path d="m41.21.46s1.91.56,1.51,2.21c0,0-.42-1.36-2.2-1.34" fill="#c5b3e6"/><path d="m16.84,24.3c3.15,0,5.67,1.29,8.27,2.38.99.42,1.95.91,2.91,1.4-.58.5-1.39.84-2.46,1.04-1.97-1.35-3.99-2.63-6.4-3.39-1.48-.47-4.72-1.07-3.87,1.47-.18,0-.52-.07-.69-.14-.26-1.75.05-2.75,2.24-2.76" fill="#c5b3e6"/><path d="m31.78,29.86c.27.11.54.21.81.3,2.13.71,4.52-.21,5.63-1.99,1.43-2.29,1.09-5.36.28-7.79-.63-1.9-1.76-3.74-2.58-5.59-.66-1.49-1.43-3.01-1.6-4.64-.28-2.65.35-6.18,2.54-8.05.85-.72,2.49-1.4,3.67-1.23l.66.41c-5.54.12-6.5,6.98-5.22,10.86.44,1.33,1.12,2.55,1.87,4.02.94,1.84,2.08,3.49,2.68,5.49.85,2.86.99,6.82-.5,9.53-.8,1.46-2.72,2.63-4.28,2.73-1.77.11-3.63-.6-5.12-1.44-.39-.22-.76-.45-1.13-.68.84-.46,1.6-1.1,2.28-1.93" fill="#c5b3e6"/><path d="m41.21.46s-3.44-1.48-6.57,1.56c-3.13,3.04-5.84,7.75-4.77,16.24,1,7.96.35,11.19-5.24,11.72-6.04.57-12.05-7.09-14.78-3.26-.79,1.11,2.82,4.97-2.11,4.82,0,0-1.74.13-3.36-1.78-1.63-1.93-2.45-.54-1.88.74.5,1.1-.78,1.56-2.43,1.56v.96s1.78,0,2.78-.58c.39-.23.53-.66.33-1.37-.09-.32-.54-1.27-.21-1.13.23.1.45.34,1.04,1.2.2.3.82,1.12,1.3,1.4.73.42,1.07.48,2.52.48,2.74,0,4.69-2,3.91-3.56-.78-1.56-1.03-2.27-.33-2.49.7-.22,2.44.12,8.31,3.16,5.86,3.04,9.39,1.93,11.57-.82,2.19-2.74.22-10.01-.08-14.83-.36-5.85,3.19-14.38,10.01-13.2V.46Z" fill="#c5b3e6"/></g></g></svg>
