<svg xmlns="http://www.w3.org/2000/svg" viewBox="0 0 16 16" width="14" height="14"><path d="m9,10.48v2.66l-2,.67v-5.31c0-.12-.05-.24-.13-.33L2.5,3.31v-1.31h11v1.31l-.46.51c.3.17.57.36.81.59l.52-.57c.08-.09.13-.21.13-.33V1.5c0-.28-.22-.5-.5-.5H2c-.28,0-.5.22-.5.5v2c0,.12.05.24.13.33l4.37,4.86v5.81c0,.05,0,.11.03.16.09.26.37.4.63.32l3-1c.2-.07.34-.26.34-.47v-2.56c-.36-.11-.7-.26-1-.46Z"/><circle cx="11.14" cy="7.22" r="2.94" fill="none" stroke-miterlimit="10"/><line x1="9.97" y1="6.05" x2="12.32" y2="8.39" fill="none" stroke-linecap="round" stroke-miterlimit="10"/><line x1="9.97" y1="8.39" x2="12.32" y2="6.05" fill="none" stroke-linecap="round" stroke-miterlimit="10"/></svg>
