<?xml version="1.0" encoding="utf-8"?>
<svg version="1.1" xmlns="http://www.w3.org/2000/svg" xmlns:xlink="http://www.w3.org/1999/xlink" x="0px" y="0px" viewBox="0 0 766.9 766.6" width="16" height="16" fill="currentColor" enable-background="new 0 0 766.9 766.6" xml:space="preserve">
	<path d="M410,374.6v-141c0-17.1-13.8-30.9-30.9-30.9h0c-17.7,0-32,14.3-32,32l0,165.2l0,0l0,0l137.5,149.7
		c11.1,12.1,31.5,11.6,43.7,0.6l0,0c11.8-11.2,13.6-30.9,2.6-42.9L410,374.6z"/>
			<path d="M138.7,589.4c-44.6-52.9-70.6-118-74.5-187.3c0,0,0-0.1,0-0.1c-1.1-16.6-15-29.9-31.9-29.9h-0.1
				c-16.5,0-30.4,12.5-32.1,28.5c-0.1,0.5,0,0.9,0,1.5c2.1,45.2,12.1,89.2,29.7,130.8c15.8,37.3,37.1,71.4,63.5,101.9L138.7,589.4z"
				/>
			<path d="M174.5,625.7l-45.3,45.3c31.2,27.6,66.3,49.8,104.7,66c40.5,17.1,83.2,27,127.2,29.5v-64.1
				C291.9,697.8,227,671.1,174.5,625.7z"/>
		<path d="M736.7,234.3c-19.3-45.7-47-86.7-82.2-121.9c-35.2-35.2-76.2-62.9-121.9-82.2C485.2,10.1,435,0,383.2,0
			s-102,10.1-149.3,30.2c-45.7,19.3-86.7,47-121.9,82.2c-13.1,13.1-25.1,27-36.1,41.6l0-104c0-17.7-14.4-32.1-32.1-32.1
			S11.7,32.2,11.7,49.9v181.6c0,17.7,14.3,32.1,32.1,32.1c0,0,0.1,0,0.1,0h181.6c17.7,0,32.1-14.4,32.1-32.1s-14.4-32.1-32.1-32.1
			l-104.1,0l0,0h0.6c10.5-14.8,22.2-28.8,35.3-41.8C217.6,97.2,297.9,64,383.2,64c85.4,0,165.6,33.2,226,93.6
			c60.4,60.4,93.6,140.6,93.6,226s-33.2,165.6-93.6,226c-53.5,53.5-122.7,85.7-197.1,92.3v64.2c41.6-3.1,82-12.8,120.5-29.1
			c45.7-19.3,86.7-47,121.9-82.2c35.2-35.2,62.9-76.2,82.2-121.9c20-47.3,30.2-97.6,30.2-149.3S756.7,281.6,736.7,234.3z"/>
</svg>
